<?xml version="1.0" standalone="no"?>
<!DOCTYPE svg PUBLIC "-//W3C//DTD SVG 20010904//EN"
 "http://www.w3.org/TR/2001/REC-SVG-20010904/DTD/svg10.dtd">
<svg version="1.0" xmlns="http://www.w3.org/2000/svg"
 width="1600.000000pt" height="1600.000000pt" viewBox="0 0 1600.000000 1600.000000"
 preserveAspectRatio="xMidYMid meet">
<metadata>
Created by potrace 1.14, written by Peter Selinger 2001-2017
</metadata>
<g transform="translate(0.000000,1600.000000) scale(0.100000,-0.100000)"
fill="#000000" stroke="none">
<path d="M8399 15530 c-86 -15 -129 -49 -129 -103 0 -22 5 -25 51 -31 64 -9
151 -41 172 -64 8 -9 19 -29 22 -45 4 -15 12 -31 19 -35 6 -4 70 -9 143 -12
151 -6 172 -15 211 -90 36 -71 49 -79 160 -99 l102 -18 0 29 c0 72 51 128 119
128 16 0 53 -11 82 -25 64 -29 79 -22 79 41 0 30 4 44 13 44 21 0 50 37 44 55
-4 10 -19 15 -44 15 -57 0 -189 25 -341 65 -129 34 -182 57 -243 106 -22 17
-52 23 -190 35 -180 15 -202 15 -270 4z"/>
<path d="M7620 15513 c-110 -11 -241 -36 -322 -62 -153 -49 -518 -195 -515
-206 6 -19 82 -36 197 -44 68 -5 133 -16 157 -26 53 -21 67 -16 93 35 11 22
37 51 58 64 64 43 327 98 522 111 52 3 114 8 138 11 42 5 42 6 42 45 0 22 5
49 10 60 10 18 6 19 -167 17 -98 0 -194 -3 -213 -5z"/>
<path d="M10327 15289 c-89 -9 -199 -38 -289 -74 -78 -32 -107 -31 -245 4 -79
20 -115 25 -122 18 -20 -20 -11 -33 32 -44 64 -18 146 -81 193 -148 49 -71
161 -275 170 -309 7 -28 -11 -43 -30 -27 -8 7 -45 55 -82 109 -90 127 -169
206 -239 238 -30 14 -60 24 -65 22 -5 -2 35 -55 90 -118 l100 -114 -77 -79
c-43 -44 -100 -97 -126 -118 l-49 -39 -117 0 c-148 0 -217 13 -303 56 -94 47
-211 79 -363 99 -72 9 -202 27 -290 41 l-161 25 -94 -25 c-208 -54 -578 -179
-667 -225 -32 -17 -119 -51 -193 -77 -144 -50 -211 -80 -318 -146 -103 -63
-203 -108 -240 -108 -53 0 -97 50 -112 128 -7 34 -16 62 -19 62 -4 0 -20 -14
-37 -31 -16 -17 -62 -56 -102 -85 -109 -81 -114 -109 -42 -205 22 -29 40 -56
40 -59 0 -3 -34 -23 -76 -43 l-77 -38 29 -30 c51 -53 67 -48 457 145 194 96
393 200 442 231 136 86 161 97 250 105 45 4 111 19 150 34 39 15 89 33 112 42
26 10 48 25 55 41 24 49 62 68 148 71 68 4 86 1 136 -22 31 -14 63 -26 71 -26
8 0 34 16 57 35 73 59 96 65 293 66 200 2 248 -7 368 -66 101 -49 271 -183
254 -200 -8 -8 -318 43 -562 92 -204 41 -232 45 -268 34 -69 -21 -106 -114
-56 -145 12 -7 35 -17 50 -20 15 -4 45 -22 65 -41 l37 -35 -28 -25 c-15 -14
-39 -25 -51 -25 -62 0 -186 36 -282 82 -142 68 -188 71 -347 29 -250 -67 -470
-179 -610 -312 -48 -45 -184 -245 -174 -256 2 -1 164 63 360 143 197 80 362
142 367 139 26 -16 -4 -41 -176 -144 -102 -61 -215 -131 -252 -155 -91 -60
-201 -177 -362 -386 -74 -96 -153 -192 -175 -214 -25 -25 -118 -82 -245 -150
l-204 -111 -28 -90 -29 -90 31 -26 c16 -14 30 -28 30 -31 0 -4 -25 -22 -56
-42 l-57 -35 -45 39 c-25 22 -48 40 -51 40 -4 0 -17 -54 -30 -120 -32 -165
-41 -162 -62 22 -12 105 -22 139 -34 126 -5 -4 -105 -468 -105 -485 0 -2 -12
-3 -27 -1 -26 3 -27 5 -24 61 1 31 13 108 26 170 13 61 36 175 51 252 46 242
82 371 154 550 71 177 97 234 188 408 29 53 52 107 52 118 0 30 -18 59 -66
107 -47 47 -61 88 -49 144 4 18 38 110 75 203 37 94 82 214 99 267 50 152 94
199 196 213 53 7 125 33 125 46 0 4 -27 5 -60 2 l-60 -6 7 48 6 49 -29 -21
c-71 -51 -214 -187 -247 -235 -27 -39 -45 -84 -68 -173 -42 -161 -87 -247
-232 -440 -73 -97 -82 -105 -123 -105 l-31 0 14 81 c9 44 14 82 11 84 -2 2
-53 -9 -113 -24 l-110 -27 3 -35 c7 -66 85 -315 128 -410 47 -104 54 -148 31
-215 -8 -22 -17 -67 -20 -101 -8 -77 -2 -79 73 -23 29 22 57 40 61 40 10 0 28
-80 22 -99 -3 -9 -28 -52 -54 -97 -84 -140 -169 -489 -169 -693 0 -161 19
-239 105 -436 118 -270 150 -412 142 -630 -3 -79 -12 -163 -20 -193 -12 -41
-13 -60 -5 -78 14 -31 18 -30 53 6 16 17 33 30 37 30 12 0 53 -94 67 -156 16
-68 16 -172 1 -220 -20 -60 -47 -92 -119 -138 -101 -65 -112 -104 -51 -181 16
-21 30 -43 30 -49 0 -6 -13 -87 -30 -181 -27 -150 -29 -176 -19 -233 12 -66 6
-137 -13 -159 -6 -8 -32 -13 -64 -13 -65 0 -68 -10 -21 -65 32 -37 33 -38 70
-25 43 14 93 61 180 173 90 115 89 121 46 -323 -11 -123 -34 -179 -85 -211
-54 -33 -108 -23 -268 51 -136 62 -186 94 -344 217 -45 35 -119 82 -167 104
-69 34 -86 47 -90 68 -18 90 -31 123 -73 184 -85 123 -103 154 -116 203 -8 30
-18 49 -27 49 -17 0 -18 -69 -6 -241 l8 -110 -60 -17 c-33 -9 -65 -17 -70 -17
-10 0 1 56 17 87 21 39 14 86 -24 146 -19 31 -39 57 -42 57 -4 0 -38 -15 -77
-34 -92 -45 -111 -50 -118 -32 -4 9 36 48 115 112 l120 98 -44 41 c-23 22 -63
57 -88 78 l-45 38 38 68 c20 38 37 72 37 75 0 3 -40 6 -90 6 -76 0 -90 2 -90
16 0 9 11 78 25 153 13 75 27 162 30 193 5 45 17 73 55 135 130 209 149 244
179 335 37 112 70 165 128 208 69 51 62 72 -26 86 -22 4 -41 11 -41 16 0 5 20
33 45 61 25 29 45 61 45 72 0 25 -41 115 -82 178 l-30 47 -49 -26 c-55 -30
-73 -54 -100 -128 -11 -32 -23 -49 -31 -47 -54 17 -76 13 -101 -21 -64 -82
-122 -160 -189 -253 -39 -55 -98 -128 -129 -162 -71 -77 -81 -113 -49 -174
l21 -42 -31 -50 c-17 -27 -27 -53 -23 -57 4 -4 57 -17 117 -28 60 -12 111 -24
114 -26 8 -8 -109 -166 -123 -166 -7 0 -43 14 -80 30 -37 17 -70 30 -74 30 -9
0 -22 -295 -14 -316 6 -17 104 -78 288 -179 175 -96 268 -162 261 -182 -3 -8
-6 -17 -6 -19 0 -11 -28 0 -100 41 -44 25 -84 45 -90 45 -13 0 -13 -470 0
-565 6 -39 31 -120 57 -184 l46 -113 -42 -91 c-38 -84 -40 -91 -23 -103 9 -7
20 -14 24 -14 3 0 47 65 98 145 51 80 96 145 102 145 5 0 42 34 82 75 67 71
135 113 159 98 5 -3 -36 -51 -90 -106 -171 -176 -277 -370 -327 -597 -21 -92
-35 -223 -24 -212 5 5 38 79 73 166 36 87 79 185 97 219 32 59 162 206 174
194 7 -7 -36 -92 -91 -177 -65 -102 -113 -202 -129 -269 -8 -33 -12 -62 -9
-65 8 -8 127 29 172 55 33 18 53 40 80 89 24 42 44 66 57 68 19 3 74 -38 74
-55 -1 -4 -35 -35 -77 -68 -41 -33 -118 -95 -170 -137 l-95 -77 58 -26 57 -25
-36 -28 c-20 -15 -36 -35 -37 -44 0 -10 2 -18 4 -18 2 0 75 27 162 60 87 33
160 57 162 55 14 -14 -26 -44 -183 -135 -97 -56 -173 -106 -168 -110 4 -5 37
-17 73 -27 84 -25 90 -45 20 -68 l-50 -17 -51 -106 c-28 -59 -68 -146 -90
-193 l-41 -86 41 -54 c99 -131 94 -254 -19 -404 -20 -28 -47 -70 -60 -95 -22
-42 -22 -46 -10 -170 16 -154 9 -285 -18 -365 -14 -40 -28 -134 -42 -287 -21
-214 -21 -268 0 -268 22 0 68 77 96 162 26 78 34 92 50 90 10 -2 21 -6 23 -8
5 -4 -46 -581 -55 -626 -8 -38 -29 -26 -43 25 -54 186 -62 208 -79 205 -23 -4
-31 -56 -31 -204 -2 -315 64 -612 206 -933 67 -151 88 -212 154 -441 28 -96
72 -233 99 -305 82 -221 117 -375 141 -618 15 -152 23 -163 101 -150 68 12 68
13 68 -124 0 -65 4 -96 14 -105 11 -11 6 -23 -36 -73 l-50 -60 58 -17 c33 -10
65 -18 72 -18 24 0 11 -19 -40 -56 -29 -21 -55 -39 -57 -41 -2 -2 3 -11 12
-21 14 -15 26 -17 72 -12 l56 6 -3 -100 -3 -101 -43 -24 c-57 -31 -42 -44 33
-26 33 7 61 12 63 10 2 -1 -4 -32 -12 -69 -10 -43 -14 -87 -10 -124 6 -55 5
-60 -25 -94 -49 -56 -44 -98 19 -161 27 -27 50 -51 50 -53 0 -1 -27 -24 -60
-50 -48 -37 -60 -53 -60 -75 0 -43 31 -59 104 -52 52 4 65 2 86 -15 14 -11 21
-24 17 -28 -4 -5 -50 -10 -101 -12 l-94 -4 -6 -32 c-2 -17 -8 -75 -12 -129
l-7 -99 39 26 c64 42 123 57 235 63 166 9 166 -3 -2 -72 -220 -89 -247 -102
-265 -130 -16 -24 -17 -54 -10 -333 7 -326 13 -386 47 -433 37 -53 69 -62 244
-70 358 -17 725 -50 782 -69 16 -6 53 -37 81 -70 44 -50 62 -62 109 -76 51
-15 60 -15 124 1 38 9 165 52 282 96 144 54 235 83 282 88 96 12 103 16 130
76 26 61 50 73 94 51 43 -23 44 -29 11 -75 -17 -22 -30 -45 -30 -50 0 -19 453
-22 3290 -19 l2945 3 0 655 0 655 -2240 5 -2240 5 -3 1078 -2 1077 54 213
c134 523 274 954 401 1234 l34 73 1775 0 1776 0 0 570 0 570 -1575 0 c-866 0
-1575 2 -1575 4 0 3 49 82 110 178 60 95 132 216 161 268 46 85 134 220 144
220 2 0 45 -32 97 -70 51 -39 136 -92 188 -119 102 -52 332 -151 352 -151 20
0 -62 78 -165 157 -62 47 -126 108 -175 166 -42 51 -143 160 -223 242 -165
169 -171 176 -330 370 -216 264 -526 681 -515 692 1 2 29 -6 61 -17 32 -11 60
-20 62 -20 2 0 -7 18 -19 41 -15 27 -38 48 -69 64 -75 39 -146 126 -233 289
-114 213 -114 262 1 374 36 34 69 62 73 62 5 0 32 -42 60 -92 101 -181 182
-318 187 -318 3 0 3 30 -1 68 -5 46 -15 79 -31 104 -31 47 -31 57 1 119 27 54
41 131 30 173 -6 26 -8 26 -101 26 -102 0 -108 4 -76 48 10 15 25 41 34 57
l15 30 -47 -3 c-39 -3 -53 1 -78 22 -20 17 -37 23 -51 19 l-22 -5 20 46 c12
25 23 74 27 109 6 64 6 64 -23 74 -28 10 -27 10 21 17 114 18 133 40 154 174
18 115 42 161 84 162 14 0 17 -9 17 -59 0 -41 10 -87 31 -148 76 -213 82 -249
83 -471 1 -199 1 -203 21 -196 11 3 39 9 62 11 35 4 43 1 56 -19 19 -30 90
-326 82 -346 -4 -11 -20 -13 -75 -10 -58 3 -70 1 -70 -12 0 -8 -9 -28 -20 -45
-23 -34 -26 -68 -7 -82 6 -5 33 -17 60 -27 34 -13 49 -24 53 -42 9 -36 -6
-116 -24 -130 -13 -10 -2 -31 88 -160 133 -190 239 -329 362 -476 117 -139
327 -368 337 -368 16 0 33 59 56 190 59 333 256 1468 261 1500 7 40 122 164
284 304 152 133 210 170 449 291 124 62 264 138 311 168 47 29 137 87 200 128
l115 74 570 5 570 5 0 700 -1 700 -27 98 c-48 173 -35 264 61 410 69 106 93
173 99 282 5 72 1 107 -15 173 -26 100 -109 276 -186 390 -94 140 -294 381
-426 513 -182 182 -315 269 -515 338 -48 16 -89 32 -92 34 -2 3 12 28 32 56
29 40 35 54 26 65 -17 20 -296 218 -367 260 -32 19 -140 67 -239 105 -99 38
-214 87 -255 109 -41 22 -102 45 -134 51 -93 17 -126 49 -126 121 l0 28 -49
-15 c-45 -15 -51 -15 -87 3 -31 15 -46 33 -72 84 -18 36 -39 64 -45 62 -7 -2
-20 -13 -30 -25 -22 -26 -19 -78 9 -149 10 -26 16 -50 12 -53 -3 -4 -66 37
-139 91 -147 109 -146 105 -26 119 31 4 57 9 57 13 0 4 -22 37 -49 73 -64 87
-101 105 -190 93 -36 -5 -100 -9 -142 -9 -67 0 -80 3 -112 28 -32 24 -43 27
-109 26 -40 -1 -108 -5 -151 -10z m-445 -745 c62 -69 114 -129 116 -133 2 -5
-5 -11 -14 -15 -21 -8 -45 14 -164 150 -67 76 -86 104 -77 113 6 6 14 11 18
11 4 0 58 -57 121 -126z m-1137 -284 c61 -18 114 -35 119 -40 13 -13 -69 -50
-110 -50 -41 0 -85 26 -121 70 -34 42 -40 64 -17 57 10 -3 69 -20 129 -37z
m4216 -461 c22 -11 39 -25 36 -32 -2 -6 -37 -29 -78 -49 -61 -32 -84 -38 -134
-38 -96 0 -105 19 -38 82 64 61 141 75 214 37z m-4542 -27 c36 -9 66 -22 68
-29 3 -6 -10 -19 -28 -29 -27 -13 -51 -15 -128 -11 -53 3 -113 11 -134 19 -34
12 -37 16 -23 27 50 41 142 50 245 23z m-375 -44 c-16 -23 -59 -74 -95 -113
-36 -39 -69 -84 -73 -98 -7 -30 10 -71 42 -100 19 -17 22 -17 98 9 103 35 246
37 375 6 94 -23 319 -88 325 -95 2 -2 -49 -90 -113 -195 l-117 -192 -95 0
c-102 0 -108 -2 -184 -63 -34 -27 -77 -38 -201 -52 -49 -6 -66 -13 -92 -39
-31 -31 -36 -32 -107 -32 -61 1 -81 -3 -103 -20 -44 -32 -65 -66 -84 -138 -11
-37 -33 -84 -49 -105 l-31 -39 70 -62 70 -62 0 38 c0 106 41 156 145 179 39 9
117 27 175 40 163 39 281 32 434 -26 l58 -21 -28 -29 c-38 -40 -88 -56 -249
-78 -209 -30 -207 -29 -254 -15 l-44 13 -44 -39 c-98 -86 -338 -178 -490 -187
-55 -4 -93 -2 -93 3 0 5 18 33 39 62 44 58 93 193 94 256 0 23 -3 62 -8 89 -7
43 -4 54 30 123 43 89 165 253 236 321 138 131 186 183 198 211 12 29 11 35
-9 65 -47 68 -144 127 -210 127 -78 0 -82 12 -25 71 56 57 133 113 215 154 58
29 212 85 219 79 2 -2 -9 -23 -25 -46z m678 2 c45 -14 74 -30 99 -57 38 -39
65 -83 52 -83 -4 0 -72 23 -151 52 l-144 52 33 28 c18 15 36 28 40 28 4 0 36
-9 71 -20z m1006 -264 c73 -43 132 -82 132 -86 0 -16 -53 -50 -76 -50 -13 0
-41 16 -63 35 -39 35 -153 191 -134 184 5 -2 69 -39 141 -83z m-2027 -109 c19
-12 34 -27 33 -32 0 -6 -56 -78 -125 -161 -122 -149 -173 -194 -220 -194 -33
0 -106 38 -129 68 -20 25 -23 25 -66 14 -78 -21 -122 -16 -156 19 -17 17 -27
34 -22 38 14 12 145 31 217 31 108 0 162 27 227 116 50 67 77 93 115 110 45
20 88 17 126 -9z m2285 -99 c43 -40 91 -114 80 -125 -6 -7 -67 13 -143 48 -59
26 -63 30 -63 61 0 72 57 79 126 16z m1180 -128 c6 -25 8 -48 5 -53 -4 -4 -27
-1 -50 8 -24 8 -47 15 -51 15 -4 0 -24 -31 -44 -70 -20 -38 -40 -72 -45 -74
-7 -5 -34 184 -27 191 5 5 171 31 186 29 9 0 20 -20 26 -46z m1942 -75 l47
-45 -152 0 c-84 0 -153 3 -153 6 0 9 47 46 84 66 17 9 53 17 79 18 44 0 53 -4
95 -45z m-1775 -3 c15 -14 32 -42 37 -61 11 -40 13 -111 4 -111 -7 0 -197 80
-203 85 -2 2 18 31 44 65 52 68 66 70 118 22z m202 -170 c0 -47 3 -54 28 -67
15 -8 40 -23 54 -35 36 -28 67 -25 96 9 14 17 28 27 31 24 16 -16 2 -44 -39
-82 -36 -33 -51 -41 -68 -35 -28 9 -112 63 -157 102 l-35 31 30 56 c38 72 60
71 60 -3z m1097 -287 c155 -63 286 -119 291 -124 5 -5 7 -17 4 -25 -5 -13 -22
-15 -104 -10 -54 3 -134 13 -178 22 -83 17 -122 18 -241 7 -63 -6 -76 -4 -120
18 -52 27 -153 111 -144 121 3 3 28 -1 55 -9 72 -22 75 -21 75 28 0 52 22 87
56 87 13 0 151 -52 306 -115z m-1523 68 c25 -15 66 -37 91 -48 75 -33 102 -55
175 -137 125 -141 170 -206 205 -291 46 -112 101 -221 144 -285 20 -30 34 -58
31 -62 -6 -10 85 -104 167 -173 59 -49 184 -194 175 -203 -2 -3 -22 -7 -43
-11 -26 -4 -52 -18 -79 -43 -54 -51 -78 -62 -108 -51 -28 11 -34 18 -376 459
-134 172 -251 317 -261 322 -27 14 -57 12 -96 -6 -27 -13 -39 -14 -69 -4 -19
6 -35 15 -35 18 0 13 42 77 68 104 14 15 24 30 21 32 -2 2 -107 45 -234 96
-126 51 -231 94 -233 95 -3 3 15 42 23 53 1 1 76 -27 166 -63 90 -36 170 -65
177 -65 16 0 16 52 -2 94 -7 18 -45 68 -85 112 -39 43 -71 83 -71 88 0 5 43 6
101 3 86 -5 108 -10 148 -34z m-2366 -70 c81 -14 88 -18 71 -30 -10 -7 -41
-20 -69 -29 -42 -12 -63 -13 -137 -2 -49 6 -88 15 -88 19 0 4 14 19 31 33 37
31 66 32 192 9z m3198 -60 c33 -28 89 -100 89 -114 0 -5 -21 -15 -47 -22 -56
-16 -94 -9 -131 25 -23 22 -72 91 -72 103 0 10 66 33 97 34 21 1 43 -8 64 -26z
m-5752 -352 c22 -51 41 -96 41 -98 0 -9 -86 9 -107 23 -20 13 -23 23 -23 84 0
50 4 73 16 85 9 9 20 13 24 8 4 -4 26 -50 49 -102z m2666 -5 c46 -21 105 -75
105 -96 0 -4 -30 -1 -67 8 -45 10 -119 15 -218 15 -170 1 -245 -15 -388 -79
-138 -63 -225 -57 -302 21 -41 40 -48 43 -126 54 -45 6 -86 11 -91 11 -10 0
-11 50 0 51 4 0 39 9 77 19 63 17 111 19 515 19 l445 1 50 -24z m1205 -52 l0
-46 38 7 37 6 -27 -26 c-34 -32 -35 -38 -4 -23 36 16 58 4 54 -29 -3 -32 -40
-54 -129 -78 -49 -14 -57 -20 -62 -44 -7 -34 -132 -154 -182 -175 -19 -8 -35
-21 -35 -28 -1 -7 -8 -1 -16 15 -10 19 -23 27 -42 27 -16 0 -22 3 -15 8 12 8
12 32 -1 90 -5 19 -3 55 5 85 10 42 23 62 69 107 31 30 60 68 64 83 10 42 71
67 169 67 l77 0 0 -46z m1192 -100 c42 -27 71 -77 92 -157 48 -184 217 -378
481 -552 213 -140 260 -206 236 -326 -6 -30 -11 -61 -11 -67 0 -7 45 -34 100
-62 116 -58 117 -62 27 -129 -66 -50 -133 -84 -261 -131 -55 -20 -109 -41
-118 -45 -24 -10 -64 71 -54 110 7 28 57 85 74 85 5 0 18 -24 29 -52 11 -29
22 -53 24 -53 13 0 140 146 144 165 3 14 -24 60 -85 148 -109 155 -182 238
-324 374 -60 56 -166 166 -236 243 -70 77 -188 196 -263 264 -106 97 -134 127
-126 138 7 7 14 13 18 13 3 0 46 -34 96 -75 49 -41 95 -75 102 -75 7 0 17 9
23 20 11 21 13 19 -103 167 -6 9 -2 16 14 22 32 13 76 4 121 -25z m-3616 17
c-3 -4 -56 -37 -117 -72 -217 -124 -347 -281 -437 -529 -63 -173 -73 -261 -37
-347 14 -33 35 -45 35 -19 0 26 44 122 88 191 59 93 160 189 288 275 58 38
109 70 115 70 43 0 -44 -120 -244 -340 -74 -80 -119 -158 -138 -236 -29 -119
-109 -132 -190 -31 -53 66 -79 121 -79 170 0 44 88 282 155 422 78 160 230
342 333 398 70 38 244 75 228 48z m2929 -51 c-75 -102 -150 -131 -220 -85
l-29 20 50 5 c40 4 63 15 108 48 54 41 117 75 125 67 2 -2 -13 -27 -34 -55z
m-1758 -36 c78 -48 72 -54 -94 -107 -81 -26 -177 -52 -213 -58 -102 -17 -648
-24 -694 -9 -43 14 -106 72 -106 98 0 9 9 28 19 42 15 19 27 24 58 22 65 -4
100 -20 114 -53 19 -48 50 -63 112 -54 29 4 96 10 149 14 89 6 101 10 140 39
24 18 61 41 83 52 54 25 213 49 307 46 66 -2 84 -7 125 -32z m-2493 -125 c40
-53 87 -176 107 -280 13 -66 0 -139 -25 -139 -31 0 -64 56 -85 145 -42 185
-61 325 -43 325 4 0 25 -23 46 -51z m2753 -70 c-31 -67 -58 -96 -115 -121 -35
-16 -57 -19 -96 -14 -61 7 -146 34 -146 47 0 18 54 22 99 5 25 -9 57 -16 69
-16 44 0 92 31 118 76 26 45 87 100 92 85 2 -5 -8 -33 -21 -62z m-1684 -121
c-95 -95 -175 -169 -179 -166 -12 13 53 133 101 186 26 29 68 67 93 84 42 29
124 66 147 68 5 0 -68 -77 -162 -172z m278 -459 c-14 -37 -157 -226 -183 -242
-34 -22 -68 -30 -68 -17 0 25 99 218 130 253 18 21 54 49 79 62 l46 23 3 -27
c2 -15 -1 -38 -7 -52z m3994 -124 c78 -73 97 -96 88 -106 -9 -9 -22 -6 -60 12
-36 18 -61 42 -100 98 -29 40 -53 77 -53 82 0 23 33 1 125 -86z m-4306 -71 c2
-2 -24 -50 -58 -108 -44 -74 -67 -103 -77 -99 -18 7 -15 17 42 139 42 91 45
94 66 83 13 -6 25 -13 27 -15z m-444 -147 c4 -21 0 -56 -11 -93 -23 -76 -23
-246 -1 -402 22 -146 22 -264 0 -327 -15 -47 -90 -135 -113 -135 -57 0 -35
496 35 788 26 107 61 202 76 202 4 0 11 -15 14 -33z m610 -117 c8 -13 -112
-160 -131 -160 -33 0 -24 33 31 110 49 67 60 78 76 70 10 -6 21 -15 24 -20z
m-81 -300 c18 -63 15 -92 -13 -124 -18 -21 -111 -70 -111 -59 0 16 94 243 100
243 4 0 15 -27 24 -60z m40 -198 c8 -14 -163 -264 -177 -256 -37 22 -36 25 50
154 74 112 88 128 104 120 10 -6 20 -14 23 -18z m-534 -344 c40 -72 49 -80 84
-72 l31 6 -44 -45 -44 -46 51 -115 c29 -63 54 -132 57 -153 4 -23 -19 -211
-60 -488 -217 -1484 -202 -1346 -179 -1570 5 -52 3 -65 -18 -95 -26 -40 -105
-83 -149 -82 -38 1 -93 35 -107 67 -19 42 -60 215 -70 296 -15 118 12 458 64
819 50 343 163 867 278 1277 24 89 48 183 52 208 8 56 21 54 54 -7z m2624
-187 c3 -5 -1 -14 -8 -21 -12 -9 -17 -7 -26 9 -9 18 -8 21 9 21 11 0 22 -4 25
-9z m-4789 -50 c-4 -9 -18 -46 -32 -83 -24 -65 -28 -69 -94 -107 -39 -22 -67
-35 -63 -28 4 6 43 65 86 129 57 87 82 116 94 111 9 -3 13 -12 9 -22z m3315
-367 c0 -8 -40 -253 -46 -281 -4 -23 -6 -23 -169 -23 -91 0 -165 3 -165 7 0 4
35 62 77 130 62 99 82 123 100 123 23 0 23 -2 23 -109 0 -61 4 -112 8 -115 5
-3 22 8 37 24 24 25 29 41 35 107 4 43 11 86 15 96 11 26 85 62 85 41z m-2773
-292 c9 -35 -26 -74 -88 -99 -29 -12 -56 -20 -58 -17 -2 2 22 43 54 91 54 81
58 85 72 67 8 -10 17 -30 20 -42z m4777 -128 c16 -20 46 -44 68 -54 46 -20 30
-33 -26 -20 -69 15 -118 67 -94 98 15 18 20 16 52 -24z m-2140 -132 c6 -11
-33 -184 -45 -196 -5 -5 -13 -5 -21 1 -7 6 -59 25 -114 42 -113 35 -133 53
-81 76 155 70 248 97 261 77z m151 -6 c19 -8 35 -21 35 -27 0 -7 12 -26 27
-41 l27 -28 -74 0 c-54 0 -78 4 -92 17 -25 22 -23 59 4 77 27 20 30 20 73 2z
m-342 -233 c39 -44 25 -124 -29 -160 -26 -17 -107 -23 -121 -9 -8 8 25 127 40
147 30 39 84 50 110 22z m297 -48 c0 -34 -42 -75 -77 -76 -51 -3 -118 3 -125
10 -7 6 169 87 195 90 4 1 7 -10 7 -24z m-480 -255 c15 -8 17 -18 13 -50 -3
-22 -2 -40 3 -40 5 0 70 9 144 20 194 29 220 27 287 -16 l56 -36 -31 -18 c-88
-54 -113 -61 -240 -71 -130 -11 -164 -21 -217 -64 l-30 -25 180 0 c156 0 185
-2 215 -18 18 -11 35 -23 37 -29 2 -6 -14 -25 -36 -42 -31 -25 -48 -31 -85
-31 -84 0 -134 -33 -159 -105 l-14 -39 -27 47 c-15 26 -31 47 -35 47 -4 0 -54
-16 -111 -35 -57 -19 -105 -35 -105 -35 -1 0 -2 54 -4 120 l-2 121 29 27 c15
15 38 35 50 44 13 11 22 29 22 45 0 33 31 193 37 193 2 0 13 -4 23 -10z
m-1817 -464 l21 -48 -25 -19 c-32 -25 -153 -99 -162 -99 -4 0 -7 39 -7 87 l0
87 33 -32 c38 -37 38 -37 77 36 13 23 28 41 33 39 5 -1 18 -24 30 -51z m1807
-169 c0 -30 2 -56 5 -59 3 -3 36 3 73 14 98 28 232 34 309 14 86 -22 143 -52
143 -75 0 -22 34 -17 -384 -51 -131 -11 -242 -17 -246 -15 -11 7 -30 88 -30
125 0 44 56 90 123 99 4 1 7 -23 7 -52z m-1968 -218 c35 -29 69 -57 76 -64 11
-10 3 -18 -42 -44 -31 -17 -60 -31 -64 -31 -5 0 -15 35 -21 78 -7 42 -15 85
-17 95 -3 9 -3 17 0 17 3 0 33 -23 68 -51z m2238 -46 c52 -13 76 -23 78 -35 2
-9 -5 -19 -15 -21 -61 -18 -476 -98 -480 -93 -7 7 50 96 79 124 45 42 87 53
178 48 47 -3 119 -14 160 -23z m-60 -299 c215 -45 260 -60 260 -91 0 -17 -2
-17 -304 12 -250 24 -300 24 -270 -4 5 -5 94 -38 198 -74 104 -37 191 -69 194
-72 20 -20 -32 -25 -224 -23 l-209 3 -3 129 c-3 164 5 181 82 173 28 -3 152
-27 276 -53z m-157 -406 c92 -45 167 -85 167 -88 0 -3 -58 -32 -130 -64 -71
-33 -127 -62 -125 -66 2 -4 56 -29 120 -55 63 -27 112 -52 107 -56 -4 -4 -60
-31 -125 -58 -66 -28 -126 -55 -135 -60 -13 -7 10 -21 98 -63 l114 -54 -80
-34 c-43 -18 -83 -37 -88 -41 -5 -4 19 -25 53 -46 33 -21 61 -41 61 -44 0 -4
-25 -17 -56 -29 -30 -13 -52 -26 -47 -30 4 -4 38 -20 76 -35 37 -15 67 -31 67
-34 0 -3 -43 -53 -95 -111 -52 -57 -91 -107 -87 -111 4 -4 42 -17 85 -29 42
-13 77 -25 77 -27 0 -2 -35 -50 -79 -106 l-78 -102 13 -35 c19 -53 17 -113 -5
-142 -11 -13 -38 -33 -60 -43 -23 -10 -41 -21 -41 -25 0 -3 34 -35 75 -71 41
-35 75 -67 75 -70 0 -3 -27 -18 -61 -34 -33 -16 -63 -33 -65 -37 -2 -3 27 -24
66 -45 38 -21 70 -40 70 -43 0 -3 -26 -19 -58 -37 -93 -53 -90 -45 -48 -102
27 -37 53 -57 97 -78 l60 -29 -23 -21 c-15 -14 -49 -26 -98 -35 -63 -11 -75
-16 -75 -33 0 -15 21 -28 93 -59 50 -21 92 -45 92 -52 0 -10 -30 -14 -125 -16
l-125 -3 80 -69 c45 -37 78 -71 75 -75 -4 -3 -41 -13 -83 -21 -112 -23 -107
-36 38 -90 67 -25 121 -49 120 -55 0 -6 -51 -11 -126 -13 l-126 -3 46 -49 c73
-78 76 -100 26 -202 l-23 -46 25 -71 c14 -39 23 -73 20 -76 -3 -3 -33 -5 -68
-5 l-62 0 -6 -72 c-3 -40 -11 -179 -17 -308 -5 -129 -13 -244 -16 -254 -3 -10
-18 -39 -34 -64 -33 -52 -39 -114 -14 -149 13 -19 10 -29 -41 -126 -47 -90
-56 -118 -64 -186 -16 -140 -37 -202 -143 -426 -44 -93 -129 -282 -188 -419
-117 -269 -168 -366 -231 -439 -92 -109 -203 -115 -318 -18 l-35 30 -77 -77
c-43 -42 -81 -73 -85 -69 -4 4 -8 33 -10 65 -7 96 40 143 167 172 30 6 63 14
73 17 14 4 17 -3 17 -42 0 -55 12 -62 76 -46 132 34 195 87 268 229 145 284
252 607 408 1226 100 396 103 439 64 761 -32 260 -50 490 -76 940 -30 522 -28
551 32 576 24 10 39 8 93 -10 81 -26 107 -26 130 -1 17 18 20 65 36 488 10
257 23 662 29 900 8 355 13 439 26 463 12 25 38 44 64 49 3 0 80 -37 173 -82z
m-2213 -360 c105 -401 96 -345 75 -472 -10 -61 -20 -117 -23 -123 -5 -17 -42
-17 -42 -1 0 7 -23 183 -51 391 -28 208 -48 385 -45 393 3 8 12 14 19 14 9 0
31 -64 67 -202z m3120 115 c0 -20 -107 -704 -115 -741 -4 -15 -12 -22 -23 -20
-12 2 -20 22 -29 73 -22 126 -17 200 21 316 19 57 51 165 71 239 20 74 39 138
42 143 8 14 33 7 33 -10z m-2630 -757 c0 -3 -16 -40 -35 -82 l-36 -78 -66 66
c-88 88 -84 98 42 98 52 0 95 -2 95 -4z m-372 -55 c11 -7 11 -23 0 -97 -13
-86 -15 -89 -42 -92 -26 -3 -28 -1 -22 25 3 15 8 61 11 101 7 74 17 86 53 63z
m2827 -93 c10 -69 3 -132 -16 -136 -20 -4 -26 18 -35 111 l-7 67 26 0 c23 0
27 -5 32 -42z m-213 -319 c2 -7 19 -7 53 1 56 13 189 7 298 -14 50 -10 76 -21
95 -40 21 -21 23 -26 10 -26 -63 0 -485 43 -492 50 -5 5 -6 16 -3 24 7 18 33
22 39 5z m378 -179 c11 -11 20 -24 20 -30 0 -15 -53 -38 -80 -34 -14 2 -81 11
-150 20 -119 15 -152 25 -137 41 10 9 124 20 235 22 80 1 95 -2 112 -19z
m-2831 -102 c-4 -122 -36 -422 -45 -425 -13 -4 -57 237 -58 321 -1 59 0 60 42
93 51 39 62 41 61 11z m2506 -68 c32 -20 35 -25 34 -68 -1 -65 -52 -317 -64
-317 -9 0 -13 38 -30 335 -6 106 -5 113 9 93 9 -12 32 -31 51 -43z m95 -1456
l55 -55 -55 6 c-85 9 -120 15 -120 21 0 16 43 84 53 84 7 0 37 -25 67 -56z
m-2286 -173 c25 -22 18 -87 -24 -247 l-33 -122 -34 -5 c-68 -11 -77 -40 -42
-129 13 -34 18 -63 15 -84 -6 -31 -69 -114 -87 -114 -10 0 -12 223 -3 358 l7
90 48 27 c52 28 52 28 69 135 20 123 20 121 43 114 12 -3 30 -14 41 -23z m242
-516 c7 -51 -1 -106 -22 -147 -21 -40 -74 -98 -90 -98 -8 0 -57 16 -109 36
l-94 36 41 82 c22 44 41 82 42 83 2 2 35 -8 75 -22 l72 -24 31 49 c17 28 35
50 39 50 4 0 11 -20 15 -45z m-316 -278 c0 -37 -8 -52 -56 -112 -57 -72 -92
-91 -86 -46 2 13 16 58 30 100 25 69 30 77 62 88 50 17 50 17 50 -30z m183
-87 c27 -22 61 -97 55 -124 -2 -12 -25 0 -93 51 l-90 67 30 12 c43 19 69 17
98 -6z m-88 -208 c105 -45 110 -49 113 -80 2 -22 -2 -34 -12 -38 -13 -5 -246
110 -246 122 0 8 25 44 30 43 3 0 55 -21 115 -47z m2069 -138 c25 -4 46 -11
46 -16 0 -4 15 -22 33 -38 l32 -29 -258 -1 -258 0 3 22 c5 37 117 67 249 67
58 1 127 -2 153 -5z m24 -160 c30 -21 29 -59 -3 -80 -22 -14 -46 -15 -185 -9
l-160 7 0 28 c0 27 1 27 118 47 147 26 201 27 230 7z m-428 -101 c11 -30 20
-71 20 -91 0 -41 -37 -104 -71 -123 -30 -16 -57 -85 -69 -175 -23 -170 -123
-285 -261 -301 -27 -3 -49 -3 -49 -1 0 3 86 180 191 394 212 432 196 412 239
297z m-1647 -71 c16 -18 10 -23 -118 -117 -83 -61 -130 -102 -123 -106 7 -4
33 -11 58 -14 82 -11 84 -2 -31 -244 -57 -121 -108 -221 -114 -221 -42 -5 -27
340 21 488 9 29 31 68 48 87 33 37 200 144 227 144 9 1 23 -7 32 -17z m1993
-37 c27 -8 58 -21 69 -29 19 -14 19 -16 -23 -55 -54 -52 -130 -76 -210 -66
-30 4 -61 9 -69 12 -24 9 -14 43 28 88 59 64 114 77 205 50z m-2635 -86 c57
-17 106 -32 108 -34 2 -2 -26 -38 -63 -80 -36 -42 -66 -80 -66 -86 0 -18 28
-20 78 -5 48 14 62 13 62 -5 0 -4 -57 -49 -127 -100 -71 -50 -134 -97 -142
-103 -12 -9 -13 -2 -8 49 30 299 41 395 47 395 4 0 54 -14 111 -31z m949 -88
c24 -7 24 -7 5 -15 -49 -20 -287 -106 -292 -106 -10 0 7 63 23 88 8 12 25 27
37 32 26 10 191 11 227 1z"/>
<path d="M11844 11606 c-7 -30 1 -56 27 -90 25 -32 93 -68 120 -64 19 3 17 9
-23 88 -41 82 -44 85 -80 88 -33 3 -38 0 -44 -22z"/>
<path d="M8140 11830 c0 -5 22 -7 53 -3 71 8 72 13 4 13 -31 0 -57 -4 -57 -10z"/>
<path d="M5682 15235 c-48 -33 -86 -37 -196 -21 -142 21 -177 8 -254 -102
l-42 -60 27 -6 c16 -3 52 -8 81 -11 29 -4 52 -11 50 -15 -5 -14 -259 -202
-265 -196 -3 3 7 39 22 81 24 66 26 79 15 106 -11 26 -46 57 -55 47 -1 -2 -17
-31 -34 -65 -45 -90 -88 -107 -188 -77 -21 6 -23 3 -23 -34 0 -62 -29 -88
-117 -106 -39 -8 -86 -22 -103 -31 -30 -15 -31 -19 -25 -53 8 -42 63 -153 99
-197 22 -26 27 -29 45 -17 28 16 63 15 87 -3 10 -8 27 -15 37 -15 10 0 29 -7
42 -16 19 -13 39 -14 98 -9 51 5 77 4 81 -4 17 -26 36 -9 52 47 21 74 38 92
84 92 41 0 55 11 65 52 4 14 16 35 28 46 18 16 343 212 352 212 2 0 6 -15 9
-34 4 -19 13 -39 21 -46 21 -18 18 -30 -7 -30 -35 0 -118 -96 -173 -200 -66
-124 -86 -146 -210 -225 -58 -37 -105 -73 -105 -80 0 -7 28 -22 63 -33 34 -11
87 -31 119 -45 l56 -26 45 48 c25 27 56 70 70 97 44 86 94 122 146 103 l22 -9
-25 -37 c-33 -51 -41 -87 -26 -123 12 -28 51 -50 91 -50 9 0 29 -14 44 -31 14
-17 27 -30 29 -28 2 2 11 27 20 56 20 61 72 137 89 130 7 -3 39 -10 72 -17 33
-7 65 -20 71 -28 10 -14 19 -1 59 78 100 202 176 310 373 535 77 88 136 161
132 163 -20 7 -125 -54 -176 -102 -30 -28 -90 -100 -133 -161 -82 -115 -111
-138 -111 -88 0 16 6 37 14 48 7 11 41 72 76 135 95 176 157 240 271 278 45
16 48 19 36 36 -13 18 -18 17 -151 -15 -123 -29 -141 -31 -170 -19 -168 71
-309 100 -474 100 -85 -1 -101 -4 -130 -25z"/>
<path d="M7225 15030 c-161 -100 -185 -125 -185 -197 l0 -53 48 0 c26 0 78 3
115 7 l68 6 -6 52 c-6 41 -3 62 13 97 20 45 22 47 117 80 43 15 57 46 35 74
-26 30 -72 16 -205 -66z"/>
<path d="M9537 14920 c45 -44 91 -80 102 -80 20 0 70 35 61 43 -9 9 -230 117
-237 117 -5 0 29 -36 74 -80z"/>
<path d="M4330 14561 c-233 -77 -293 -115 -412 -263 -128 -156 -178 -182 -401
-203 -50 -5 -87 -17 -145 -46 -48 -24 -91 -39 -114 -39 -21 0 -55 -7 -75 -15
-21 -8 -72 -22 -113 -30 -112 -23 -155 -61 -250 -220 l-24 -40 24 17 c56 39
181 106 260 140 115 49 217 74 407 98 268 34 289 45 508 254 173 166 303 274
413 343 39 25 72 47 72 49 0 5 17 10 -150 -45z"/>
<path d="M8048 14529 c-34 -19 -18 -39 62 -79 44 -22 82 -40 85 -40 10 0 5 42
-10 70 -28 54 -91 76 -137 49z"/>
<path d="M4859 14158 c-13 -23 -31 -67 -39 -97 -19 -68 -50 -93 -123 -99 -71
-6 -93 14 -102 93 -8 59 -24 85 -55 85 -23 0 -72 -21 -68 -29 2 -3 15 -28 29
-56 43 -81 53 -152 34 -227 -8 -34 -27 -82 -40 -106 -14 -25 -25 -47 -25 -51
0 -4 18 -5 40 -3 53 5 66 25 83 135 8 48 17 90 20 93 3 4 23 2 44 -3 38 -9 38
-9 50 -78 7 -39 15 -85 18 -102 5 -30 9 -33 40 -33 19 0 36 3 38 8 11 18 117
494 112 503 -12 19 -32 8 -56 -33z"/>
<path d="M2953 14101 c-7 -11 -60 -42 -118 -70 -123 -59 -173 -96 -205 -152
-38 -69 -6 -105 86 -97 l39 3 8 64 c5 39 14 69 23 76 9 6 65 38 125 70 60 32
109 63 109 70 0 11 -41 55 -51 55 -2 0 -10 -9 -16 -19z"/>
<path d="M4246 13939 c-85 -20 -178 -80 -273 -176 l-92 -93 -108 2 c-94 2
-123 -2 -226 -30 -176 -48 -250 -50 -348 -8 -9 4 -25 -1 -40 -13 -23 -18 -23
-20 -8 -53 9 -18 43 -64 75 -102 56 -65 59 -67 93 -61 20 4 151 11 291 15 271
8 297 13 410 70 87 44 236 149 313 221 l79 72 -28 22 c-32 26 -27 38 27 65 21
11 39 25 39 31 0 17 -82 49 -125 48 -22 -1 -57 -5 -79 -10z"/>
<path d="M2424 13643 c-8 -21 -19 -48 -24 -60 -5 -13 -28 -30 -50 -39 -22 -9
-40 -20 -40 -25 0 -4 -13 -22 -30 -39 -31 -32 -35 -53 -24 -122 l7 -38 29 25
c16 14 41 25 55 25 17 0 37 14 63 43 35 39 41 42 89 41 l51 0 0 37 c0 55 -37
167 -60 179 -34 18 -51 11 -66 -27z"/>
<path d="M2868 13625 c-2 -3 -31 -10 -64 -16 -70 -13 -101 -31 -115 -66 -14
-39 6 -53 86 -61 l67 -7 2 -75 c1 -41 5 -80 9 -87 10 -16 145 39 170 69 17 20
17 22 -14 48 -31 25 -32 29 -27 81 3 30 4 59 1 65 -4 11 -65 4 -107 -12 -18
-7 -18 1 1 54 5 12 0 16 -9 7z"/>
<path d="M2622 13370 c-72 -34 -143 -97 -179 -157 -14 -24 -34 -48 -44 -53
-15 -9 -21 -5 -36 25 l-18 35 -67 -55 c-77 -64 -108 -109 -108 -156 0 -65 111
-690 145 -812 18 -67 51 -163 72 -212 135 -313 398 -612 779 -885 l115 -83 36
30 c20 16 46 41 57 57 19 25 19 29 6 54 -8 15 -51 51 -95 80 -44 29 -80 57
-80 62 0 5 19 22 42 39 27 19 45 41 48 58 23 109 36 136 130 258 61 78 95 134
95 154 0 6 -32 11 -72 13 l-71 3 92 100 c51 55 125 145 164 200 88 124 177
215 242 248 61 30 85 56 120 126 l27 54 -26 26 -26 25 -51 -49 c-28 -28 -97
-109 -154 -181 -84 -106 -137 -159 -277 -281 -95 -83 -207 -180 -248 -217
l-75 -66 -18 22 c-69 86 -67 99 28 159 58 36 215 189 215 209 0 16 -27 29 -70
32 -30 2 -46 8 -47 18 -2 8 49 63 117 124 66 60 117 113 114 117 -10 17 -159
9 -240 -11 -147 -38 -265 -106 -524 -304 -112 -85 -125 -93 -128 -74 -6 38 18
98 56 140 22 25 72 58 131 89 127 64 146 79 128 102 -12 17 -17 18 -102 3 -50
-9 -93 -16 -97 -16 -4 0 -8 25 -10 55 l-3 55 -92 -61 c-76 -51 -95 -59 -108
-49 -12 10 -10 21 21 82 l35 70 -32 27 -32 27 48 25 c58 30 85 63 92 116 9 65
-5 78 -92 92 l-76 13 54 52 55 52 3 110 c4 107 5 111 52 207 27 55 47 101 45
103 -2 2 -32 -10 -66 -26z"/>
<path d="M3156 13196 c-54 -20 -136 -104 -136 -141 0 -6 42 -1 181 22 90 14
98 14 133 -2 20 -10 50 -37 67 -61 69 -101 156 -97 260 13 50 53 89 102 89
113 0 3 -17 16 -37 27 -34 18 -61 22 -233 27 -107 3 -215 8 -240 11 -27 3 -61
-1 -84 -9z"/>
<path d="M3270 12840 c-25 -10 -155 -63 -290 -118 -215 -86 -245 -101 -248
-122 l-4 -23 129 6 c70 4 155 14 188 23 44 12 75 14 115 8 94 -13 182 -10 218
10 31 16 144 112 150 127 2 4 -25 -1 -60 -12 -35 -10 -66 -19 -70 -19 -5 0 -8
15 -8 34 0 40 -16 87 -33 98 -18 12 -37 9 -87 -12z"/>
<path d="M4683 12840 c-87 -5 -107 -10 -140 -32 -21 -15 -69 -41 -106 -59 -57
-27 -83 -49 -168 -142 -130 -142 -148 -170 -214 -323 -93 -215 -167 -320 -296
-420 -46 -35 -240 -254 -225 -254 2 0 27 -5 56 -10 42 -8 63 -20 101 -55 49
-46 81 -55 119 -35 10 5 60 65 111 132 51 68 143 186 204 263 61 77 145 185
187 240 41 55 87 111 101 124 27 24 24 24 147 5 22 -3 42 0 54 9 22 16 14 36
-40 103 l-33 42 227 92 c125 51 231 96 235 100 12 10 -10 50 -27 50 -8 0 -86
-29 -174 -64 -89 -35 -164 -61 -167 -58 -11 11 -4 58 14 97 10 22 48 73 85
113 60 66 79 95 59 90 -5 0 -54 -4 -110 -8z m-871 -1085 c24 -52 -49 -139
-127 -152 l-37 -6 41 82 c39 77 60 98 99 100 7 1 18 -10 24 -24z"/>
<path d="M3745 12696 c-39 -17 -115 -102 -115 -128 0 -4 14 -15 32 -24 46 -24
111 -14 150 22 25 25 68 92 68 108 0 4 -100 38 -104 36 -1 -1 -14 -7 -31 -14z"/>
<path d="M5447 12431 c-138 -74 -140 -77 -94 -96 92 -38 160 -6 196 91 12 30
21 57 21 59 0 10 -19 2 -123 -54z"/>
<path d="M4418 12180 c-46 -25 -67 -55 -102 -150 -82 -216 -216 -366 -490
-548 -148 -98 -198 -144 -222 -207 -16 -44 -16 -138 0 -177 6 -14 -12 -27
-103 -73 l-111 -55 22 -31 c28 -37 108 -99 167 -129 24 -12 94 -41 155 -65 61
-23 119 -46 128 -50 13 -5 22 3 37 34 31 60 28 113 -10 156 -17 19 -37 35 -44
35 -7 0 -22 -23 -33 -51 -12 -28 -25 -49 -30 -47 -4 1 -38 36 -75 76 l-68 73
57 82 c126 181 176 239 354 418 102 102 255 257 340 346 85 88 188 190 229
227 66 60 73 69 59 82 -13 13 -26 6 -114 -65 -98 -80 -99 -81 -118 -62 -19 20
-19 21 43 100 34 45 59 85 56 91 -10 17 -88 10 -127 -10z"/>
<path d="M5082 12144 c44 -63 104 -112 143 -120 23 -4 45 1 73 15 53 27 61 41
19 34 -40 -6 -80 11 -165 72 -35 25 -72 45 -83 45 -18 0 -17 -4 13 -46z"/>
<path d="M5344 11959 c-32 -17 -60 -32 -62 -34 -5 -5 56 -121 73 -139 10 -10
32 -16 58 -15 54 1 141 31 145 51 2 8 -7 41 -19 72 -15 41 -30 63 -53 77 -43
26 -75 24 -142 -12z"/>
<path d="M3993 11218 c-93 -94 -101 -105 -88 -121 30 -41 112 18 199 141 38
55 41 82 9 82 -10 0 -64 -46 -120 -102z"/>
<path d="M5850 10826 c0 -3 14 -27 31 -55 44 -70 38 -119 -21 -196 -24 -31
-41 -57 -39 -59 2 -2 14 -8 26 -15 20 -10 24 -6 56 52 77 137 82 172 36 235
-24 33 -37 42 -60 42 -16 0 -29 -2 -29 -4z"/>
<path d="M5787 10062 c-80 -111 -77 -138 10 -98 56 27 63 38 63 104 0 81 -11
80 -73 -6z"/>
</g>
</svg>
